<svg width="1200" height="900" viewBox="0 0 1200 900" xmlns="http://www.w3.org/2000/svg" font-family="Arial, sans-serif">

  <!-- Header -->
  <rect x="0" y="0" width="1200" height="80" fill="none" stroke="#999"></rect>
  <text x="40" y="50" font-size="20">Logo</text>
  <text x="1080" y="50" font-size="14">Cart</text>

  <!-- Sidebar Filters -->
  <rect x="20" y="100" width="240" height="620" fill="none" stroke="#999"></rect>
  <text x="40" y="130" font-size="16">Filters</text>

  <text x="40" y="170" font-size="14">Category</text>
  <text x="40" y="200" font-size="12">☐ Necklace</text>
  <text x="40" y="220" font-size="12">☐ Bracelet</text>
  <text x="40" y="240" font-size="12">☐ Earrings</text>

  <text x="40" y="280" font-size="14">Raw Material</text>
  <text x="40" y="310" font-size="12">☐ Bead-Based</text>
  <text x="40" y="330" font-size="12">☐ Resin-Based</text>

  <text x="40" y="370" font-size="14">Features</text>
  <text x="40" y="400" font-size="12">☐ Handmade</text>
  <text x="40" y="420" font-size="12">☐ Adjustable</text>

  <!-- Product Grid -->
  <!-- Card size: 200 x 260 -->
  <!-- Row 1 -->
  <g transform="translate(300,100)">
    <rect width="200" height="260" fill="none" stroke="#999"></rect>
    <rect x="20" y="20" width="160" height="140" fill="none" stroke="#bbb"></rect>
    <text x="20" y="190" font-size="12">Product Name</text>
    <text x="20" y="210" font-size="12">Price</text>
    <text x="20" y="230" font-size="10">Icons</text>
  </g>

  <g transform="translate(520,100)">
    <rect width="200" height="260" fill="none" stroke="#999"></rect>
    <rect x="20" y="20" width="160" height="140" fill="none" stroke="#bbb"></rect>
    <text x="20" y="190" font-size="12">Product Name</text>
    <text x="20" y="210" font-size="12">Price</text>
    <text x="20" y="230" font-size="10">Icons</text>
  </g>

  <g transform="translate(740,100)">
    <rect width="200" height="260" fill="none" stroke="#999"></rect>
    <rect x="20" y="20" width="160" height="140" fill="none" stroke="#bbb"></rect>
    <text x="20" y="190" font-size="12">Product Name</text>
    <text x="20" y="210" font-size="12">Price</text>
    <text x="20" y="230" font-size="10">Icons</text>
  </g>

  <!-- Row 2 -->
  <g transform="translate(300,380)">
    <rect width="200" height="260" fill="none" stroke="#999"></rect>
    <rect x="20" y="20" width="160" height="140" fill="none" stroke="#bbb"></rect>
    <text x="20" y="190" font-size="12">Product Name</text>
    <text x="20" y="210" font-size="12">Price</text>
    <text x="20" y="230" font-size="10">Icons</text>
  </g>

  <g transform="translate(520,380)">
    <rect width="200" height="260" fill="none" stroke="#999"></rect>
    <rect x="20" y="20" width="160" height="140" fill="none" stroke="#bbb"></rect>
    <text x="20" y="190" font-size="12">Product Name</text>
    <text x="20" y="210" font-size="12">Price</text>
    <text x="20" y="230" font-size="10">Icons</text>
  </g>

  <g transform="translate(740,380)">
    <rect width="200" height="260" fill="none" stroke="#999"></rect>
    <rect x="20" y="20" width="160" height="140" fill="none" stroke="#bbb"></rect>
    <text x="20" y="190" font-size="12">Product Name</text>
    <text x="20" y="210" font-size="12">Price</text>
    <text x="20" y="230" font-size="10">Icons</text>
  </g>

  <!-- Load More -->
  <rect x="520" y="680" width="160" height="40" fill="none" stroke="#999"></rect>
  <text x="560" y="705" font-size="14">Load More</text>

  <!-- Footer -->
  <rect x="0" y="760" width="1200" height="120" fill="none" stroke="#999"></rect>
  <text x="40" y="800" font-size="14">About Us</text>
  <text x="200" y="800" font-size="14">Contact</text>
  <text x="360" y="800" font-size="14">Social</text>

</svg>
